<svg xmlns="http://www.w3.org/2000/svg" viewBox="0 0 16 16">
	<g style="transform: scale(1.333);">
		<path fill="#f05133" d="M 11.5 5.5 L 6.5 0.5 C 6.2 0.2 5.8 0.2 5.5 0.5 L 4.4 1.6 L 5.7 2.9 A 0.9 0.9 0 0 1 6.8 4 L 8.1 5.2 A 0.9 0.9 0 0 1 9 6.7 A 0.9 0.9 0 0 1 7.6 5.7 L 6.4 4.6 L 6.4 7.6 A 0.9 0.9 0 0 1 6.01 9.32 A 0.9 0.9 0 0 1 5.7 7.6 L 5.7 4.6 A 0.9 0.9 0 0 1 5.2 3.4 L 3.9 2.1 L 0.5 5.5 C 0.2 5.8 0.2 6.2 0.5 6.5 L 5.5 11.5 C 5.8 11.8 6.2 11.8 6.5 11.5 L 11.5 6.5 C 11.8 6.3 11.8 5.8 11.5 5.5" />
	</g>
</svg>